<svg xmlns="http://www.w3.org/2000/svg" xmlns:xlink="http://www.w3.org/1999/xlink" version="1.0" id="Layer_1" x="0px" y="0px" viewBox="0 0 100 100" enable-background="new 0 0 100 100" xml:space="preserve" height="100px" width="100px">
<path d="M51.2,84.1H34.5c-0.9,0-1.6-0.7-1.6-1.6s0.7-1.6,1.6-1.6h16.7c0.9,0,1.6,0.7,1.6,1.6S52.1,84.1,51.2,84.1z"/>
<path d="M51.2,77.9H30.5c-0.9,0-1.6-0.7-1.6-1.6s0.7-1.6,1.6-1.6h20.7c0.9,0,1.6,0.7,1.6,1.6S52.1,77.9,51.2,77.9z"/>
<path d="M51.2,71.7H30.8c-0.9,0-1.6-0.7-1.6-1.6s0.7-1.6,1.6-1.6h20.4c0.9,0,1.6,0.7,1.6,1.6S52.1,71.7,51.2,71.7z"/>
<path d="M62.6,90.4H39.4c-0.9,0-1.6-0.7-1.6-1.6s0.7-1.6,1.6-1.6h23.2c0.9,0,1.6,0.7,1.6,1.6S63.5,90.4,62.6,90.4z"/>
<path d="M51.2,63.8"/>
<path d="M62.6,64.5H45c-0.9,0-1.6-0.7-1.6-1.6s0.7-1.6,1.6-1.6h17.6c0.9,0,1.6,0.7,1.6,1.6S63.5,64.5,62.6,64.5z"/>
<path d="M73.7,71.1c-0.6,0-1.2-0.3-1.4-0.9c-1.7-3.4-5.4-5.6-9.5-5.6c-0.9,0-1.6-0.7-1.6-1.6s0.7-1.6,1.6-1.6  c5.2,0,10.1,2.9,12.4,7.4c0.4,0.8,0.1,1.8-0.7,2.2C74.1,71,73.9,71.1,73.7,71.1z"/>
<path d="M62.9,90.3c-0.9,0-1.6-0.7-1.6-1.6s0.7-1.6,1.6-1.6c4,0,7.8-2.2,9.5-5.6c0.4-0.8,1.4-1.1,2.2-0.7c0.8,0.4,1.1,1.4,0.7,2.2  C73,87.4,68.1,90.3,62.9,90.3z"/>
<path d="M39.4,90.4c-2.6,0-4.7-2.1-4.7-4.7c0-2.6,2.1-4.7,4.7-4.7c0.9,0,1.6,0.7,1.6,1.6s-0.7,1.6-1.6,1.6c-0.8,0-1.5,0.7-1.5,1.5  c0,0.8,0.7,1.5,1.5,1.5c0.9,0,1.6,0.7,1.6,1.6S40.2,90.4,39.4,90.4z"/>
<path d="M33.4,84.1c-2.6,0-4.7-2.1-4.7-4.7s2.1-4.7,4.7-4.7c0.9,0,1.6,0.7,1.6,1.6s-0.7,1.6-1.6,1.6c-0.8,0-1.5,0.7-1.5,1.5  c0,0.8,0.7,1.5,1.5,1.5c0.9,0,1.6,0.7,1.6,1.6S34.3,84.1,33.4,84.1z"/>
<path d="M30.5,78c-2.6,0-4.7-2.1-4.7-4.7c0-2.6,2.1-4.7,4.7-4.7c0.9,0,1.6,0.7,1.6,1.6s-0.7,1.6-1.6,1.6c-0.8,0-1.5,0.7-1.5,1.5  s0.7,1.5,1.5,1.5c0.9,0,1.6,0.7,1.6,1.6S31.4,78,30.5,78z"/>
<path d="M34.1,63.8"/>
<path d="M43.3,70.5c-0.9,0-1.6-0.7-1.6-1.6V28.7c0-0.9,0.7-1.6,1.6-1.6s1.6,0.7,1.6,1.6v40.1C44.9,69.7,44.2,70.5,43.3,70.5z"/>
<path d="M43.4,28.8c-5.7,0-5.7-6.8-5.7-9c0-4.7,4.3-9.5,4.5-9.7c0.3-0.3,0.7-0.5,1.2-0.5l0,0c0.5,0,0.9,0.2,1.2,0.5  c0.2,0.2,4.5,5,4.5,9.7C49.1,22,49.1,28.8,43.4,28.8z M43.4,13.8c-1.1,1.6-2.5,4-2.5,6c0,5.8,1.6,5.8,2.5,5.8c0.9,0,2.5,0,2.5-5.8  C45.9,17.8,44.6,15.4,43.4,13.8z"/>
<path d="M51.5,38.7L51.5,38.7c-1.3,0-2.5-0.5-3.6-1.6c-1.6-1.6-2-3.5-1.2-5.6c0.5-1.4,1.7-3,3.5-4.8c3.3-3.3,9.7-3.7,10-3.7  c0.5,0,0.9,0.1,1.2,0.5c0.3,0.3,0.5,0.8,0.5,1.2c0,0.3-0.4,6.7-3.7,10C56.5,36.6,54,38.7,51.5,38.7z M58.5,26.5  c-1.9,0.3-4.5,1.1-6,2.5c-1.5,1.5-2.4,2.7-2.8,3.7c-0.3,0.9-0.2,1.5,0.4,2.1c0.6,0.6,1,0.6,1.3,0.6c1.6,0,3.8-2.2,4.6-3  C57.4,31.1,58.2,28.5,58.5,26.5z"/>
<path d="M43.3,42.8c-0.4,0-0.8-0.2-1.1-0.5c-0.6-0.6-0.6-1.7,0-2.3l5.5-5.5c0.6-0.6,1.7-0.6,2.3,0c0.6,0.6,0.6,1.7,0,2.3l-5.5,5.5  C44.1,42.6,43.7,42.8,43.3,42.8z"/>
<path d="M51.5,56.2L51.5,56.2c-1.3,0-2.5-0.5-3.6-1.6c-1.6-1.6-2-3.5-1.2-5.6c0.5-1.4,1.7-3,3.5-4.8c3.3-3.3,9.7-3.7,10-3.7  c0.5,0,0.9,0.1,1.2,0.5c0.3,0.3,0.5,0.8,0.5,1.2c0,0.3-0.4,6.7-3.7,10C56.5,54.1,54,56.2,51.5,56.2z M58.5,44  c-1.9,0.3-4.5,1.1-6,2.5c-1.5,1.5-2.4,2.7-2.8,3.7c-0.3,0.9-0.2,1.5,0.4,2.1c0.6,0.6,1,0.6,1.3,0.6c1.6,0,3.8-2.2,4.6-3  C57.4,48.6,58.2,46,58.5,44z"/>
<path d="M43.3,60.3c-0.4,0-0.8-0.2-1.1-0.5c-0.6-0.6-0.6-1.7,0-2.3l5.5-5.5c0.6-0.6,1.7-0.6,2.3,0c0.6,0.6,0.6,1.7,0,2.3l-5.5,5.5  C44.1,60.1,43.7,60.3,43.3,60.3z"/>
<path d="M35.1,38.7c-2.6,0-5-2.1-6.8-3.9c-3.3-3.3-3.7-9.7-3.7-10c0-0.5,0.1-0.9,0.5-1.2s0.8-0.5,1.2-0.5c0.3,0,6.7,0.4,10,3.7  c1.9,1.9,3,3.4,3.5,4.8c0.8,2.1,0.4,4-1.2,5.6C37.6,38.2,36.4,38.7,35.1,38.7z M28,26.5c0.3,1.9,1.1,4.5,2.5,6c0.7,0.7,3,3,4.6,3  c0.3,0,0.7-0.1,1.3-0.6c0.7-0.7,0.8-1.3,0.4-2.1c-0.4-1-1.3-2.2-2.8-3.7C32.6,27.6,30,26.9,28,26.5z"/>
<path d="M43.2,42.8c-0.4,0-0.8-0.2-1.1-0.5l-5.5-5.5c-0.6-0.6-0.6-1.7,0-2.3c0.6-0.6,1.7-0.6,2.3,0l5.5,5.5c0.6,0.6,0.6,1.7,0,2.3  C44,42.6,43.6,42.8,43.2,42.8z"/>
<path d="M35.1,56.2c-2.6,0-5-2.1-6.8-3.9c-3.3-3.3-3.7-9.7-3.7-10c0-0.5,0.1-0.9,0.5-1.2s0.8-0.5,1.2-0.5c0.3,0,6.7,0.4,10,3.7  c1.9,1.9,3,3.4,3.5,4.8c0.8,2.1,0.4,4-1.2,5.6C37.6,55.7,36.4,56.2,35.1,56.2z M28,44c0.3,1.9,1.1,4.5,2.5,6c0.7,0.7,3,3,4.6,3  c0.3,0,0.7-0.1,1.3-0.6c0.7-0.7,0.8-1.3,0.4-2.1c-0.4-1-1.3-2.2-2.8-3.7C32.6,45.1,30,44.4,28,44z"/>
<path d="M43.2,60.3c-0.4,0-0.8-0.2-1.1-0.5l-5.5-5.5c-0.6-0.6-0.6-1.7,0-2.3c0.6-0.6,1.7-0.6,2.3,0l5.5,5.5c0.6,0.6,0.6,1.7,0,2.3  C44,60.1,43.6,60.3,43.2,60.3z"/>
</svg>