<svg xmlns="http://www.w3.org/2000/svg" xmlns:xlink="http://www.w3.org/1999/xlink" version="1.1" id="Layer_1" x="0px" y="0px" width="90px" height="90px" viewBox="0 0 90 90" enable-background="new 0 0 90 90" xml:space="preserve">
<g id="Layer_2">
</g>
<g id="Layer_3">
</g>
<path fill="none" stroke="#000000" stroke-width="3" stroke-linecap="round" stroke-linejoin="round" stroke-miterlimit="10" d="  M-34.175-25.11"/>
<g>
	<path d="M38.484,35.428h10.211c0.828,0,1.5-0.671,1.5-1.5s-0.672-1.5-1.5-1.5H38.484c-0.828,0-1.5,0.671-1.5,1.5   S37.656,35.428,38.484,35.428z"/>
	<path d="M38.484,39.257h10.211c0.828,0,1.5-0.671,1.5-1.5s-0.672-1.5-1.5-1.5H38.484c-0.828,0-1.5,0.671-1.5,1.5   S37.656,39.257,38.484,39.257z"/>
	<path d="M61.998,49.73c0,0.829,0.672,1.5,1.5,1.5h10.211c0.828,0,1.5-0.671,1.5-1.5s-0.672-1.5-1.5-1.5H63.498   C62.669,48.23,61.998,48.901,61.998,49.73z"/>
	<path d="M79.616,19.051H10.464c-0.828,0-1.5,0.671-1.5,1.5v37.744c0,0.829,0.672,1.5,1.5,1.5h9.639   c0.37,1.153,0.89,2.286,1.536,3.335c-4.03,2.046-6.804,6.222-6.804,11.043v4.816c0,0.829,0.672,1.5,1.5,1.5   c0.828,0,1.5-0.671,1.5-1.5v-4.816c0-5.176,4.211-9.388,9.388-9.388h4.652c2.547,0,4.856,1.023,6.549,2.674   c0.105,0.172,0.246,0.324,0.42,0.445c1.498,1.664,2.419,3.858,2.419,6.268v4.816c0,0.829,0.672,1.5,1.5,1.5s1.5-0.671,1.5-1.5   v-4.816c0-2.887-1.001-5.54-2.663-7.649c1.758-2.381,4.56-3.828,7.553-3.828h4.651c5.177,0,9.389,4.211,9.389,9.388V76.9   c0,0.829,0.672,1.5,1.5,1.5c0.828,0,1.5-0.671,1.5-1.5v-4.816c0-5.212-3.24-9.674-7.809-11.5c0.147-0.259,0.284-0.522,0.416-0.789   h20.815c0.828,0,1.5-0.671,1.5-1.5V20.551C81.116,19.722,80.444,19.051,79.616,19.051z M27.223,61.785   c-0.923,0-1.82,0.109-2.687,0.302c-1.254-1.814-2.074-4.164-2.074-6.054c0-3.556,2.893-6.448,6.448-6.448s6.449,2.893,6.449,6.448   c0,1.838-0.75,4.065-1.94,5.859c-0.507-0.063-1.02-0.107-1.544-0.107H27.223z M39.456,64.396c-0.909-0.707-1.916-1.29-3.001-1.724   c0.52-0.918,0.945-1.891,1.261-2.877h5.163c0.213,0.432,0.447,0.852,0.7,1.261C41.992,61.858,40.578,62.985,39.456,64.396z    M53.805,59.696h-4.651c-0.911,0-1.803,0.125-2.675,0.319c-1.261-1.816-2.086-4.173-2.086-6.071c0-3.556,2.893-6.448,6.448-6.448   s6.448,2.893,6.448,6.448c0,1.838-0.75,4.065-1.939,5.859C54.843,59.739,54.33,59.696,53.805,59.696z M78.116,56.795H59.908   c0.242-0.972,0.382-1.938,0.382-2.851c0-5.21-4.238-9.448-9.448-9.448s-9.448,4.238-9.448,9.448c0,0.917,0.14,1.883,0.381,2.851   h-3.453c0.019-0.256,0.039-0.513,0.039-0.763c0-5.21-4.239-9.448-9.449-9.448s-9.448,4.238-9.448,9.448   c0,0.25,0.021,0.507,0.039,0.763h-7.538V22.051h66.151C78.116,22.051,78.116,56.795,78.116,56.795z"/>
	<path d="M52.827,34.402c-0.176,0.719-0.28,1.465-0.28,2.237c0,5.189,4.222,9.411,9.41,9.411s9.41-4.222,9.41-9.411   c0-5.148-4.157-9.339-9.29-9.404c-0.997-1.89-2.98-3.183-5.262-3.183c-3.28,0-5.949,2.668-5.949,5.949   C50.867,31.746,51.626,33.312,52.827,34.402z M59.686,30.652c-0.298,1.312-1.469,2.297-2.87,2.297   c-0.029,0-0.056-0.008-0.085-0.009C57.462,31.911,58.488,31.108,59.686,30.652z M68.368,36.639c0,3.535-2.876,6.411-6.41,6.411   s-6.41-2.876-6.41-6.411c0-0.276,0.023-0.547,0.058-0.814c0.391,0.081,0.796,0.125,1.211,0.125c3.185,0,5.785-2.518,5.934-5.666   C65.911,30.675,68.368,33.373,68.368,36.639z M56.816,27.052c0.747,0,1.423,0.288,1.943,0.748   c-1.864,0.677-3.458,1.918-4.562,3.527c-0.204-0.401-0.33-0.847-0.33-1.327C53.867,28.375,55.19,27.052,56.816,27.052z"/>
	<path d="M28.256,43.373c0.293,0.293,0.677,0.439,1.061,0.439s0.768-0.146,1.061-0.439l5.251-5.251c0.586-0.585,0.586-1.536,0-2.121   l-5.251-5.251c-0.586-0.586-1.535-0.586-2.121,0l-5.251,5.251c-0.586,0.585-0.586,1.536,0,2.121L28.256,43.373z M29.317,33.931   l3.13,3.13l-3.13,3.13l-3.13-3.13L29.317,33.931z"/>
</g>
</svg>